<svg width="64" height="64" viewBox="0 0 64 64" fill="none" xmlns="http://www.w3.org/2000/svg">
<path d="M32 32H31.25C31.25 32.1989 31.329 32.3897 31.4697 32.5303L32 32ZM32.75 18.6667C32.75 18.2525 32.4142 17.9167 32 17.9167C31.5858 17.9167 31.25 18.2525 31.25 18.6667H32.75ZM39.4697 40.5303C39.7626 40.8232 40.2374 40.8232 40.5303 40.5303C40.8232 40.2374 40.8232 39.7626 40.5303 39.4697L39.4697 40.5303ZM55.25 32C55.25 44.8406 44.8406 55.25 32 55.25V56.75C45.669 56.75 56.75 45.669 56.75 32H55.25ZM32 55.25C19.1594 55.25 8.75 44.8406 8.75 32H7.25C7.25 45.669 18.331 56.75 32 56.75V55.25ZM8.75 32C8.75 19.1594 19.1594 8.75 32 8.75V7.25C18.331 7.25 7.25 18.331 7.25 32H8.75ZM32 8.75C44.8406 8.75 55.25 19.1594 55.25 32H56.75C56.75 18.331 45.669 7.25 32 7.25V8.75ZM32.75 32V18.6667H31.25V32H32.75ZM31.4697 32.5303L39.4697 40.5303L40.5303 39.4697L32.5303 31.4697L31.4697 32.5303Z" fill="#8314DB"/>
</svg>
