<svg width="180" height="180" viewBox="0 0 180 180" fill="none" xmlns="http://www.w3.org/2000/svg">
<rect width="180" height="180" fill="#212121"/>
<path d="M158 85H158.75C158.75 84.5858 158.414 84.25 158 84.25V85ZM150 93L149.47 93.5303C149.763 93.8232 150.237 93.8232 150.53 93.5303L150 93ZM146 89L146.53 88.4697C146.237 88.1768 145.763 88.1768 145.47 88.4697L146 89ZM139.47 94.4697C139.177 94.7626 139.177 95.2374 139.47 95.5303C139.763 95.8232 140.237 95.8232 140.53 95.5303L139.47 94.4697ZM152 84.25C151.586 84.25 151.25 84.5858 151.25 85C151.25 85.4142 151.586 85.75 152 85.75V84.25ZM157.25 91C157.25 91.4142 157.586 91.75 158 91.75C158.414 91.75 158.75 91.4142 158.75 91H157.25ZM157.47 84.4697L149.47 92.4697L150.53 93.5303L158.53 85.5303L157.47 84.4697ZM150.53 92.4697L146.53 88.4697L145.47 89.5303L149.47 93.5303L150.53 92.4697ZM145.47 88.4697L139.47 94.4697L140.53 95.5303L146.53 89.5303L145.47 88.4697ZM152 85.75H158V84.25H152V85.75ZM157.25 85V91H158.75V85H157.25Z" fill="#8314DB"/>
<path d="M32.7539 92.4453C32.582 94.2656 31.9102 95.6875 30.7383 96.7109C29.5664 97.7266 28.0078 98.2344 26.0625 98.2344C24.7031 98.2344 23.5039 97.9141 22.4648 97.2734C21.4336 96.625 20.6367 95.707 20.0742 94.5195C19.5117 93.332 19.2188 91.9531 19.1953 90.3828V88.7891C19.1953 87.1797 19.4805 85.7617 20.0508 84.5352C20.6211 83.3086 21.4375 82.3633 22.5 81.6992C23.5703 81.0352 24.8047 80.7031 26.2031 80.7031C28.0859 80.7031 29.6016 81.2148 30.75 82.2383C31.8984 83.2617 32.5664 84.707 32.7539 86.5742H29.8008C29.6602 85.3477 29.3008 84.4648 28.7227 83.9258C28.1523 83.3789 27.3125 83.1055 26.2031 83.1055C24.9141 83.1055 23.9219 83.5781 23.2266 84.5234C22.5391 85.4609 22.1875 86.8398 22.1719 88.6602V90.1719C22.1719 92.0156 22.5 93.4219 23.1562 94.3906C23.8203 95.3594 24.7891 95.8438 26.0625 95.8438C27.2266 95.8438 28.1016 95.582 28.6875 95.0586C29.2734 94.5352 29.6445 93.6641 29.8008 92.4453H32.7539ZM34.6055 91.543C34.6055 90.3008 34.8516 89.1836 35.3438 88.1914C35.8359 87.1914 36.5273 86.4258 37.418 85.8945C38.3086 85.3555 39.332 85.0859 40.4883 85.0859C42.1992 85.0859 43.5859 85.6367 44.6484 86.7383C45.7188 87.8398 46.2969 89.3008 46.3828 91.1211L46.3945 91.7891C46.3945 93.0391 46.1523 94.1562 45.668 95.1406C45.1914 96.125 44.5039 96.8867 43.6055 97.4258C42.7148 97.9648 41.6836 98.2344 40.5117 98.2344C38.7227 98.2344 37.2891 97.6406 36.2109 96.4531C35.1406 95.2578 34.6055 93.668 34.6055 91.6836V91.543ZM37.4531 91.7891C37.4531 93.0938 37.7227 94.1172 38.2617 94.8594C38.8008 95.5938 39.5508 95.9609 40.5117 95.9609C41.4727 95.9609 42.2188 95.5859 42.75 94.8359C43.2891 94.0859 43.5586 92.9883 43.5586 91.543C43.5586 90.2617 43.2812 89.2461 42.7266 88.4961C42.1797 87.7461 41.4336 87.3711 40.4883 87.3711C39.5586 87.3711 38.8203 87.7422 38.2734 88.4844C37.7266 89.2188 37.4531 90.3203 37.4531 91.7891ZM51.4453 85.3203L51.5273 86.7852C52.4648 85.6523 53.6953 85.0859 55.2188 85.0859C57.8594 85.0859 59.2031 86.5977 59.25 89.6211V98H56.4023V89.7852C56.4023 88.9805 56.2266 88.3867 55.875 88.0039C55.5312 87.6133 54.9648 87.418 54.1758 87.418C53.0273 87.418 52.1719 87.9375 51.6094 88.9766V98H48.7617V85.3203H51.4453ZM65.7305 82.2383V85.3203H67.9688V87.4297H65.7305V94.5078C65.7305 94.9922 65.8242 95.3438 66.0117 95.5625C66.207 95.7734 66.5508 95.8789 67.043 95.8789C67.3711 95.8789 67.7031 95.8398 68.0391 95.7617V97.9648C67.3906 98.1445 66.7656 98.2344 66.1641 98.2344C63.9766 98.2344 62.8828 97.0273 62.8828 94.6133V87.4297H60.7969V85.3203H62.8828V82.2383H65.7305ZM76.793 87.9219C76.418 87.8594 76.0312 87.8281 75.6328 87.8281C74.3281 87.8281 73.4492 88.3281 72.9961 89.3281V98H70.1484V85.3203H72.8672L72.9375 86.7383C73.625 85.6367 74.5781 85.0859 75.7969 85.0859C76.2031 85.0859 76.5391 85.1406 76.8047 85.25L76.793 87.9219ZM77.6367 91.543C77.6367 90.3008 77.8828 89.1836 78.375 88.1914C78.8672 87.1914 79.5586 86.4258 80.4492 85.8945C81.3398 85.3555 82.3633 85.0859 83.5195 85.0859C85.2305 85.0859 86.6172 85.6367 87.6797 86.7383C88.75 87.8398 89.3281 89.3008 89.4141 91.1211L89.4258 91.7891C89.4258 93.0391 89.1836 94.1562 88.6992 95.1406C88.2227 96.125 87.5352 96.8867 86.6367 97.4258C85.7461 97.9648 84.7148 98.2344 83.543 98.2344C81.7539 98.2344 80.3203 97.6406 79.2422 96.4531C78.1719 95.2578 77.6367 93.668 77.6367 91.6836V91.543ZM80.4844 91.7891C80.4844 93.0938 80.7539 94.1172 81.293 94.8594C81.832 95.5938 82.582 95.9609 83.543 95.9609C84.5039 95.9609 85.25 95.5859 85.7812 94.8359C86.3203 94.0859 86.5898 92.9883 86.5898 91.543C86.5898 90.2617 86.3125 89.2461 85.7578 88.4961C85.2109 87.7461 84.4648 87.3711 83.5195 87.3711C82.5898 87.3711 81.8516 87.7422 81.3047 88.4844C80.7578 89.2188 80.4844 90.3203 80.4844 91.7891ZM94.8633 98H92.0156V80H94.8633V98ZM101.215 91.6602V98H98.25V80.9375H104.777C106.684 80.9375 108.195 81.4336 109.312 82.4258C110.438 83.418 111 84.7305 111 86.3633C111 88.0352 110.449 89.3359 109.348 90.2656C108.254 91.1953 106.719 91.6602 104.742 91.6602H101.215ZM101.215 89.2812H104.777C105.832 89.2812 106.637 89.0352 107.191 88.543C107.746 88.043 108.023 87.3242 108.023 86.3867C108.023 85.4648 107.742 84.7305 107.18 84.1836C106.617 83.6289 105.844 83.3438 104.859 83.3281H101.215V89.2812ZM120.762 98C120.637 97.7578 120.527 97.3633 120.434 96.8164C119.527 97.7617 118.418 98.2344 117.105 98.2344C115.832 98.2344 114.793 97.8711 113.988 97.1445C113.184 96.418 112.781 95.5195 112.781 94.4492C112.781 93.0977 113.281 92.0625 114.281 91.3438C115.289 90.6172 116.727 90.2539 118.594 90.2539H120.34V89.4219C120.34 88.7656 120.156 88.2422 119.789 87.8516C119.422 87.4531 118.863 87.2539 118.113 87.2539C117.465 87.2539 116.934 87.418 116.52 87.7461C116.105 88.0664 115.898 88.4766 115.898 88.9766H113.051C113.051 88.2812 113.281 87.6328 113.742 87.0312C114.203 86.4219 114.828 85.9453 115.617 85.6016C116.414 85.2578 117.301 85.0859 118.277 85.0859C119.762 85.0859 120.945 85.4609 121.828 86.2109C122.711 86.9531 123.164 88 123.188 89.3516V95.0703C123.188 96.2109 123.348 97.1211 123.668 97.8008V98H120.762ZM117.633 95.9492C118.195 95.9492 118.723 95.8125 119.215 95.5391C119.715 95.2656 120.09 94.8984 120.34 94.4375V92.0469H118.805C117.75 92.0469 116.957 92.2305 116.426 92.5977C115.895 92.9648 115.629 93.4844 115.629 94.1562C115.629 94.7031 115.809 95.1406 116.168 95.4688C116.535 95.7891 117.023 95.9492 117.633 95.9492ZM130.418 93.9219L132.996 85.3203H136.031L130.992 99.9219C130.219 102.055 128.906 103.121 127.055 103.121C126.641 103.121 126.184 103.051 125.684 102.91V100.707L126.223 100.742C126.941 100.742 127.48 100.609 127.84 100.344C128.207 100.086 128.496 99.6484 128.707 99.0312L129.117 97.9414L124.664 85.3203H127.734L130.418 93.9219Z" fill="white"/>
</svg>
