<svg width="64" height="64" viewBox="0 0 64 64" fill="none" xmlns="http://www.w3.org/2000/svg">
<path d="M48.4176 49.4782C48.7105 49.7711 49.1854 49.7711 49.4782 49.4782C49.7711 49.1854 49.7711 48.7105 49.4782 48.4176L48.4176 49.4782ZM55.25 32C55.25 44.8406 44.8406 55.25 32 55.25V56.75C45.669 56.75 56.75 45.669 56.75 32H55.25ZM32 55.25C19.1594 55.25 8.75 44.8406 8.75 32H7.25C7.25 45.669 18.331 56.75 32 56.75V55.25ZM8.75 32C8.75 19.1594 19.1594 8.75 32 8.75V7.25C18.331 7.25 7.25 18.331 7.25 32H8.75ZM32 8.75C44.8406 8.75 55.25 19.1594 55.25 32H56.75C56.75 18.331 45.669 7.25 32 7.25V8.75ZM31.4697 32.5303L48.4176 49.4782L49.4782 48.4176L32.5303 31.4697L31.4697 32.5303ZM32 31.25H8V32.75H32V31.25ZM32.75 32V8H31.25V32H32.75Z" fill="#59148F"/>
</svg>
