<svg width="48" height="48" viewBox="0 0 48 48" fill="none" xmlns="http://www.w3.org/2000/svg">
<path d="M42 14H42.75C42.75 13.5858 42.4142 13.25 42 13.25V14ZM26 30L25.4697 30.5303C25.7626 30.8232 26.2374 30.8232 26.5303 30.5303L26 30ZM18 22L18.5303 21.4697C18.2374 21.1768 17.7626 21.1768 17.4697 21.4697L18 22ZM5.46967 33.4697C5.17678 33.7626 5.17678 34.2374 5.46967 34.5303C5.76256 34.8232 6.23744 34.8232 6.53033 34.5303L5.46967 33.4697ZM30 13.25C29.5858 13.25 29.25 13.5858 29.25 14C29.25 14.4142 29.5858 14.75 30 14.75V13.25ZM41.25 26C41.25 26.4142 41.5858 26.75 42 26.75C42.4142 26.75 42.75 26.4142 42.75 26H41.25ZM41.4697 13.4697L25.4697 29.4697L26.5303 30.5303L42.5303 14.5303L41.4697 13.4697ZM26.5303 29.4697L18.5303 21.4697L17.4697 22.5303L25.4697 30.5303L26.5303 29.4697ZM17.4697 21.4697L5.46967 33.4697L6.53033 34.5303L18.5303 22.5303L17.4697 21.4697ZM30 14.75H42V13.25H30V14.75ZM41.25 14V26H42.75V14H41.25Z" fill="#37DB08"/>
</svg>
