<svg width="48" height="48" viewBox="0 0 48 48" fill="none" xmlns="http://www.w3.org/2000/svg">
<path d="M42 34V34.75C42.4142 34.75 42.75 34.4142 42.75 34H42ZM26 18L26.5303 17.4697C26.2374 17.1768 25.7626 17.1768 25.4697 17.4697L26 18ZM18 26L17.4697 26.5303C17.7626 26.8232 18.2374 26.8232 18.5303 26.5303L18 26ZM6.53033 13.4697C6.23744 13.1768 5.76256 13.1768 5.46967 13.4697C5.17678 13.7626 5.17678 14.2374 5.46967 14.5303L6.53033 13.4697ZM30 33.25C29.5858 33.25 29.25 33.5858 29.25 34C29.25 34.4142 29.5858 34.75 30 34.75V33.25ZM42.75 22C42.75 21.5858 42.4142 21.25 42 21.25C41.5858 21.25 41.25 21.5858 41.25 22H42.75ZM42.5303 33.4697L26.5303 17.4697L25.4697 18.5303L41.4697 34.5303L42.5303 33.4697ZM25.4697 17.4697L17.4697 25.4697L18.5303 26.5303L26.5303 18.5303L25.4697 17.4697ZM18.5303 25.4697L6.53033 13.4697L5.46967 14.5303L17.4697 26.5303L18.5303 25.4697ZM30 34.75H42V33.25H30V34.75ZM42.75 34V22H41.25V34H42.75Z" fill="#DB1F14"/>
</svg>
