<svg width="64" height="64" viewBox="0 0 64 64" fill="none" xmlns="http://www.w3.org/2000/svg">
<path d="M60.5833 56C60.5833 56.4142 60.9191 56.75 61.3333 56.75C61.7475 56.75 62.0833 56.4142 62.0833 56H60.5833ZM49.3333 39.25C48.9191 39.25 48.5833 39.5858 48.5833 40C48.5833 40.4142 48.9191 40.75 49.3333 40.75V39.25ZM40 28.5833C39.5858 28.5833 39.25 28.9191 39.25 29.3333C39.25 29.7475 39.5858 30.0833 40 30.0833V28.5833ZM40 7.25C39.5858 7.25 39.25 7.58579 39.25 8C39.25 8.41421 39.5858 8.75 40 8.75V7.25ZM44.5833 56C44.5833 56.4142 44.9191 56.75 45.3333 56.75C45.7475 56.75 46.0833 56.4142 46.0833 56H44.5833ZM1.91667 56C1.91667 56.4142 2.25245 56.75 2.66667 56.75C3.08088 56.75 3.41667 56.4142 3.41667 56H1.91667ZM60.5833 50.6667V56H62.0833V50.6667H60.5833ZM49.3333 40.75H50.6667V39.25H49.3333V40.75ZM62.0833 50.6667C62.0833 44.3614 56.9719 39.25 50.6667 39.25V40.75C56.1435 40.75 60.5833 45.1898 60.5833 50.6667H62.0833ZM49.9167 18.6667C49.9167 24.1435 45.4768 28.5833 40 28.5833V30.0833C46.3052 30.0833 51.4167 24.9719 51.4167 18.6667H49.9167ZM40 8.75C45.4768 8.75 49.9167 13.1898 49.9167 18.6667H51.4167C51.4167 12.3614 46.3052 7.25 40 7.25V8.75ZM13.3333 40.75H34.6667V39.25H13.3333V40.75ZM44.5833 50.6667V56H46.0833V50.6667H44.5833ZM3.41667 56V50.6667H1.91667V56H3.41667ZM34.6667 40.75C40.1435 40.75 44.5833 45.1898 44.5833 50.6667H46.0833C46.0833 44.3614 40.9719 39.25 34.6667 39.25V40.75ZM13.3333 39.25C7.02808 39.25 1.91667 44.3614 1.91667 50.6667H3.41667C3.41667 45.1898 7.85651 40.75 13.3333 40.75V39.25ZM33.9167 18.6667C33.9167 24.1435 29.4768 28.5833 24 28.5833V30.0833C30.3052 30.0833 35.4167 24.9719 35.4167 18.6667H33.9167ZM24 28.5833C18.5232 28.5833 14.0833 24.1435 14.0833 18.6667H12.5833C12.5833 24.9719 17.6947 30.0833 24 30.0833V28.5833ZM14.0833 18.6667C14.0833 13.1898 18.5232 8.75 24 8.75V7.25C17.6947 7.25 12.5833 12.3614 12.5833 18.6667H14.0833ZM24 8.75C29.4768 8.75 33.9167 13.1898 33.9167 18.6667H35.4167C35.4167 12.3614 30.3052 7.25 24 7.25V8.75Z" fill="#8314DB"/>
</svg>
